<svg width="768" height="768" viewBox="0 0 768 768" fill="none" xmlns="http://www.w3.org/2000/svg">
<rect width="768" height="768" fill="#FF5233"/>
<path d="M168.098 623.391V560.628H107.032V531.226H168.098V468.463H197.501V531.226H258.567V560.628H197.501V623.391H168.098ZM317.875 255.862C302.42 255.862 289.415 250.774 278.86 240.596C268.683 230.041 263.594 217.225 263.594 202.147C263.594 187.069 268.683 174.441 278.86 164.263C289.415 153.708 302.42 148.431 317.875 148.431C333.33 148.431 346.146 153.52 356.324 163.698C366.502 173.875 371.591 186.692 371.591 202.147C371.591 217.225 366.502 230.041 356.324 240.596C346.146 250.774 333.33 255.862 317.875 255.862ZM317.875 225.329C324.283 225.329 329.561 223.068 333.707 218.544C338.23 214.021 340.492 208.555 340.492 202.147C340.492 195.739 338.23 190.461 333.707 186.315C329.561 181.791 324.283 179.53 317.875 179.53C311.467 179.53 306.001 181.791 301.478 186.315C296.954 190.461 294.692 195.739 294.692 202.147C294.692 208.555 296.954 214.021 301.478 218.544C306.001 223.068 311.467 225.329 317.875 225.329ZM498.401 374.602V287.526H538.547V374.602H498.401ZM386.446 444.715V404.57H473.522V444.715H386.446ZM565.122 444.715V404.57H652.198V444.715H565.122ZM498.401 560.628V473.552H538.547V560.628H498.401Z" fill="#E4E2D8"/>
</svg>
